<svg id="kity_svg_6" xmlns="http://www.w3.org/2000/svg" xmlns:xlink="http://www.w3.org/1999/xlink" version="1.1" width="1180" height="984" style="background: rgb(251, 251, 251); visibility: visible;" viewBox="0 0 1180 984"><defs id="kity_defs_7"><linearGradient id="kity_linearGradient_17" x1="0" y1="0" x2="0" y2="1"><stop id="kity_stop_18" offset="0" stop-color="rgb(255, 255, 255)"></stop><stop id="kity_stop_19" offset="1" stop-color="rgb(204, 204, 204)"></stop></linearGradient><marker id="kity_marker_2" orient="auto" refX="6" refY="0" viewBox="-7 -7 14 14" markerWidth="7" markerHeight="7" markerUnits="userSpaceOnUse"><path id="kity_path_3" fill="rgb(115, 161, 191)" stroke="none" d="M6,0A6,6,0,1,1,-6,0A6,6,0,1,1,6,0"></path></marker></defs><g id="kity_g_8"><g id="minder1" text-rendering="optimize-speed"><g id="minder_connect_group1"><path id="kity_path_31" fill="none" stroke="rgb(115, 161, 191)" stroke-width="1" d="M526.5,557.5A179,463,0,0,1,705.5,94.5"></path><path id="kity_path_39" fill="none" stroke="rgb(115, 161, 191)" stroke-width="1" d="M526.5,557.5A188,325,0,0,1,714.5,232.5"></path><path id="kity_path_47" fill="none" stroke="rgb(115, 161, 191)" stroke-width="1" d="M526.5,557.5A194,160,0,0,1,720.5,397.5"></path><path id="kity_path_55" fill="none" stroke="rgb(115, 161, 191)" stroke-width="1" d="M526.5,557.5A198,33,0,0,0,724.5,590.5"></path><path id="kity_path_63" fill="none" stroke="rgb(115, 161, 191)" stroke-width="1" d="M526.5,557.5A202,375,0,0,0,728.5,932.5"></path><path id="kity_path_71" fill="none" stroke="rgb(115, 161, 191)" stroke-width="1" d="M526.5,557.5A198,448,0,0,0,328.5,109.5"></path><path id="kity_path_79" fill="none" stroke="rgb(115, 161, 191)" stroke-width="1" d="M526.5,557.5A210,114,0,0,1,316.5,671.5"></path><path id="kity_path_87" fill="none" stroke="rgb(115, 161, 191)" stroke-width="1" d="M526.5,557.5A212,394,0,0,1,314.5,951.5"></path><path id="kity_path_103" fill="none" stroke="rgb(115, 161, 191)" stroke-width="1" d="M526.5,557.5A202,208,0,0,0,324.5,349.5"></path><path id="kity_path_271" fill="none" stroke="rgb(115, 161, 191)" stroke-width="1" d="M526.5,557.5A202,203,0,0,0,728.5,760.5"></path><path id="kity_path_400" fill="none" stroke="rgb(115, 161, 191)" stroke-width="1" d="M164.5,568.5C149.5,568.5,149.5,464.5,134.5,464.5L44.5,464.5"></path><path id="kity_path_401" fill="none" stroke="rgb(115, 161, 191)" stroke-width="1" d="M164.5,568.5C149.5,568.5,149.5,516.5,134.5,516.5L44.5,516.5"></path><path id="kity_path_402" fill="none" stroke="rgb(115, 161, 191)" stroke-width="1" d="M164.5,568.5C149.5,568.5,149.5,568.5,134.5,568.5L20.5,568.5"></path><path id="kity_path_403" fill="none" stroke="rgb(115, 161, 191)" stroke-width="1" d="M164.5,568.5C149.5,568.5,149.5,620.5,134.5,620.5L44.5,620.5"></path><path id="kity_path_404" fill="none" stroke="rgb(115, 161, 191)" stroke-width="1" d="M164.5,568.5C149.5,568.5,149.5,672.5,134.5,672.5L56.5,672.5"></path><path id="kity_path_405" fill="none" stroke="rgb(115, 161, 191)" stroke-width="1" d="M260.5,671.5C245.5,671.5,245.5,568.5,230.5,568.5L164.5,568.5"></path><path id="kity_path_406" fill="none" stroke="rgb(115, 161, 191)" stroke-width="1" d="M260.5,671.5C245.5,671.5,245.5,724.5,230.5,724.5L140.5,724.5"></path><path id="kity_path_407" fill="none" stroke="rgb(115, 161, 191)" stroke-width="1" d="M188.5,802.5C173.5,802.5,173.5,776.5,158.5,776.5L92.5,776.5"></path><path id="kity_path_408" fill="none" stroke="rgb(115, 161, 191)" stroke-width="1" d="M188.5,802.5C173.5,802.5,173.5,828.5,158.5,828.5L92.5,828.5"></path><path id="kity_path_409" fill="none" stroke="rgb(115, 161, 191)" stroke-width="1" d="M260.5,671.5C245.5,671.5,245.5,802.5,230.5,802.5L188.5,802.5"></path><path id="kity_path_465" fill="none" stroke="rgb(115, 161, 191)" stroke-width="1" d="M244.5,109.5C229.5,109.5,229.5,45.5,214.5,45.5L160.5,45.5"></path><path id="kity_path_466" fill="none" stroke="rgb(115, 161, 191)" stroke-width="1" d="M244.5,109.5C229.5,109.5,229.5,97.5,214.5,97.5L160.5,97.5"></path><path id="kity_path_467" fill="none" stroke="rgb(115, 161, 191)" stroke-width="1" d="M244.5,109.5C229.5,109.5,229.5,149.5,214.5,149.5L172.5,149.5"></path><path id="kity_path_468" fill="none" stroke="rgb(115, 161, 191)" stroke-width="1" d="M244.5,109.5C229.5,109.5,229.5,201.5,214.5,201.5L160.5,201.5"></path><path id="kity_path_471" fill="none" stroke="rgb(115, 161, 191)" stroke-width="1" d="M817.5,94.5C832.5,94.5,832.5,82.5,847.5,82.5L937.5,82.5"></path><path id="kity_path_472" fill="none" stroke="rgb(115, 161, 191)" stroke-width="1" d="M817.5,94.5C832.5,94.5,832.5,134.5,847.5,134.5L937.5,134.5"></path><path id="kity_path_473" fill="none" stroke="rgb(115, 161, 191)" stroke-width="1" d="M812.5,232.5C827.5,232.5,827.5,246.5,842.5,246.5L1160.5,246.5"></path><path id="kity_path_479" fill="none" stroke="rgb(115, 161, 191)" stroke-width="1" d="M798.5,760.5C813.5,760.5,813.5,748.5,828.5,748.5L906.5,748.5"></path><path id="kity_path_480" fill="none" stroke="rgb(115, 161, 191)" stroke-width="1" d="M798.5,760.5C813.5,760.5,813.5,800.5,828.5,800.5L906.5,800.5"></path><path id="kity_path_481" fill="none" stroke="rgb(115, 161, 191)" stroke-width="1" d="M794.5,590.5C809.5,590.5,809.5,552.5,824.5,552.5L914.5,552.5"></path><path id="kity_path_482" fill="none" stroke="rgb(115, 161, 191)" stroke-width="1" d="M794.5,590.5C809.5,590.5,809.5,604.5,824.5,604.5L914.5,604.5"></path><path id="kity_path_483" fill="none" stroke="rgb(115, 161, 191)" stroke-width="1" d="M794.5,590.5C809.5,590.5,809.5,656.5,824.5,656.5L914.5,656.5"></path><path id="kity_path_484" fill="none" stroke="rgb(115, 161, 191)" stroke-width="1" d="M891.5,359.5C906.5,359.5,906.5,359.5,921.5,359.5L1083.5,359.5"></path><path id="kity_path_485" fill="none" stroke="rgb(115, 161, 191)" stroke-width="1" d="M790.5,397.5C805.5,397.5,805.5,359.5,820.5,359.5L891.5,359.5"></path><path id="kity_path_486" fill="none" stroke="rgb(115, 161, 191)" stroke-width="1" d="M902.5,411.5C917.5,411.5,917.5,411.5,932.5,411.5L1046.5,411.5"></path><path id="kity_path_487" fill="none" stroke="rgb(115, 161, 191)" stroke-width="1" d="M790.5,397.5C805.5,397.5,805.5,411.5,820.5,411.5L902.5,411.5"></path><path id="kity_path_488" fill="none" stroke="rgb(115, 161, 191)" stroke-width="1" d="M877.5,463.5C892.5,463.5,892.5,463.5,907.5,463.5L1021.5,463.5"></path><path id="kity_path_489" fill="none" stroke="rgb(115, 161, 191)" stroke-width="1" d="M790.5,397.5C805.5,397.5,805.5,463.5,820.5,463.5L877.5,463.5"></path></g><g id="minder_node1"><path id="node_outline1" fill="rgb(115, 161, 191)" stroke="rgb(115, 161, 191)" d="M451.5,537.5h150a5,5,0,0,1,5,5v30a5,5,0,0,1,-5,5h-150a5,5,0,0,1,-5,-5v-30a5,5,0,0,1,5,-5z" stroke-width="3"></path><g id="node_text1" fill="white"><text id="kity_text_22" text-rendering="inherit" font-size="16" dy=".8em" y="549.5" x="470.5">数据结构和算法</text></g></g><g id="kity_g_14" display="none"><path id="kity_path_15" fill="rgba(0, 92, 153, 0.5)" stroke="none" d="M727.5,676.5h68v20h-68z"></path><path id="kity_path_16" fill="none" stroke="rgb(0, 76, 128)" d="M727.5,696.5L795.5,696.5" stroke-width="1"></path></g><g id="minder_node2" opacity="1"><g id="node_expander1" style="cursor: pointer;"><path id="kity_path_36" fill="white" stroke="gray" d="M706.5,94.5A6,6,0,1,1,694.5,94.5A6,6,0,1,1,706.5,94.5"></path><path id="kity_path_37" fill="none" stroke="gray" d="M696,94.5L705,94.5"></path></g><path id="node_outline2" fill="rgb(238, 243, 246)" stroke="rgb(115, 161, 191)" d="M710.5,81.5h104a3,3,0,0,1,3,3v20a3,3,0,0,1,-3,3h-104a3,3,0,0,1,-3,-3v-20a3,3,0,0,1,3,-3z" stroke-width="1"></path><g id="node_text2" fill="black"><text id="kity_text_33" text-rendering="inherit" font-size="14" dy=".8em" y="87.5" x="727.5">复杂度分析</text></g></g><g id="minder_node3" opacity="1"><g id="node_expander2" style="cursor: pointer;"><path id="kity_path_44" fill="white" stroke="gray" d="M715.5,232.5A6,6,0,1,1,703.5,232.5A6,6,0,1,1,715.5,232.5"></path><path id="kity_path_45" fill="none" stroke="gray" d="M705,232.5L714,232.5"></path></g><path id="node_outline3" fill="rgb(238, 243, 246)" stroke="rgb(57, 80, 96)" d="M719.5,219.5h90a3,3,0,0,1,3,3v20a3,3,0,0,1,-3,3h-90a3,3,0,0,1,-3,-3v-20a3,3,0,0,1,3,-3z" stroke-width="3"></path><g id="node_text3" fill="black"><text id="kity_text_41" text-rendering="inherit" font-size="14" dy=".8em" y="225.5" x="736.5">算法思想</text></g></g><g id="minder_node4" opacity="1"><g id="node_expander3" style="cursor: pointer;"><path id="kity_path_52" fill="white" stroke="gray" d="M721.5,397.5A6,6,0,1,1,709.5,397.5A6,6,0,1,1,721.5,397.5"></path><path id="kity_path_53" fill="none" stroke="gray" d="M711,397.5L720,397.5"></path></g><path id="node_outline4" fill="rgb(238, 243, 246)" stroke="rgb(115, 161, 191)" d="M725.5,384.5h62a3,3,0,0,1,3,3v20a3,3,0,0,1,-3,3h-62a3,3,0,0,1,-3,-3v-20a3,3,0,0,1,3,-3z" stroke-width="1"></path><g id="node_text4" fill="black"><text id="kity_text_49" text-rendering="inherit" font-size="14" dy=".8em" y="390.5" x="742.5">排序</text></g></g><g id="minder_node5" opacity="1"><g id="node_expander4" style="cursor: pointer;"><path id="kity_path_60" fill="white" stroke="gray" d="M725.5,590.5A6,6,0,1,1,713.5,590.5A6,6,0,1,1,725.5,590.5"></path><path id="kity_path_61" fill="none" stroke="gray" d="M715,590.5L724,590.5"></path></g><path id="node_outline5" fill="rgb(238, 243, 246)" stroke="rgb(115, 161, 191)" d="M729.5,577.5h62a3,3,0,0,1,3,3v20a3,3,0,0,1,-3,3h-62a3,3,0,0,1,-3,-3v-20a3,3,0,0,1,3,-3z" stroke-width="1"></path><g id="node_text5" fill="black"><text id="kity_text_57" text-rendering="inherit" font-size="14" dy=".8em" y="583.5" x="746.5">查找</text></g></g><g id="minder_node6" opacity="1"><g id="node_expander5" style="cursor: pointer;" display="none"><path id="kity_path_68" fill="white" stroke="gray" d="M729.5,932.5A6,6,0,1,1,717.5,932.5A6,6,0,1,1,729.5,932.5"></path><path id="kity_path_69" fill="none" stroke="gray"></path></g><path id="node_outline6" fill="rgb(238, 243, 246)" stroke="rgb(115, 161, 191)" d="M733.5,919.5h104a3,3,0,0,1,3,3v20a3,3,0,0,1,-3,3h-104a3,3,0,0,1,-3,-3v-20a3,3,0,0,1,3,-3z" stroke-width="1"></path><g id="node_text6" fill="black"><text id="kity_text_65" text-rendering="inherit" font-size="14" dy=".8em" y="925.5" x="750.5">字符串匹配</text></g></g><g id="minder_node7" opacity="1"><g id="node_expander6" style="cursor: pointer;"><path id="kity_path_76" fill="white" stroke="gray" d="M339.5,109.5A6,6,0,1,1,327.5,109.5A6,6,0,1,1,339.5,109.5"></path><path id="kity_path_77" fill="none" stroke="gray" d="M329,109.5L338,109.5"></path></g><path id="node_outline7" fill="rgb(238, 243, 246)" stroke="rgb(115, 161, 191)" d="M247.5,96.5h76a3,3,0,0,1,3,3v20a3,3,0,0,1,-3,3h-76a3,3,0,0,1,-3,-3v-20a3,3,0,0,1,3,-3z" stroke-width="1"></path><g id="node_text7" fill="black"><text id="kity_text_73" text-rendering="inherit" font-size="14" dy=".8em" y="102.5" x="264.5">线性表</text></g></g><g id="minder_node8" opacity="1"><g id="node_expander7" style="cursor: pointer;"><path id="kity_path_84" fill="white" stroke="gray" d="M327.5,671.5A6,6,0,1,1,315.5,671.5A6,6,0,1,1,327.5,671.5"></path><path id="kity_path_85" fill="none" stroke="gray" d="M317,671.5L326,671.5"></path></g><path id="node_outline8" fill="rgb(238, 243, 246)" stroke="rgb(115, 161, 191)" d="M263.5,658.5h48a3,3,0,0,1,3,3v20a3,3,0,0,1,-3,3h-48a3,3,0,0,1,-3,-3v-20a3,3,0,0,1,3,-3z" stroke-width="1"></path><g id="node_text8" fill="black"><text id="kity_text_81" text-rendering="inherit" font-size="14" dy=".8em" y="664.5" x="280.5">树</text></g></g><g id="minder_node9" opacity="1"><g id="node_expander8" style="cursor: pointer;" display="none"><path id="kity_path_92" fill="white" stroke="gray" d="M325.5,951.5A6,6,0,1,1,313.5,951.5A6,6,0,1,1,325.5,951.5"></path><path id="kity_path_93" fill="none" stroke="gray"></path></g><path id="node_outline9" fill="rgb(238, 243, 246)" stroke="rgb(115, 161, 191)" d="M261.5,938.5h48a3,3,0,0,1,3,3v20a3,3,0,0,1,-3,3h-48a3,3,0,0,1,-3,-3v-20a3,3,0,0,1,3,-3z" stroke-width="1"></path><g id="node_text9" fill="black"><text id="kity_text_89" text-rendering="inherit" font-size="14" dy=".8em" y="944.5" x="278.5">图</text></g></g><g id="minder_node11" opacity="1"><g id="node_expander10" style="cursor: pointer;" display="none"><path id="kity_path_108" fill="white" stroke="gray" d="M335.5,349.5A6,6,0,1,1,323.5,349.5A6,6,0,1,1,335.5,349.5"></path><path id="kity_path_109" fill="none" stroke="gray"></path></g><path id="node_outline11" fill="rgb(238, 243, 246)" stroke="rgb(115, 161, 191)" d="M243.5,336.5h76a3,3,0,0,1,3,3v20a3,3,0,0,1,-3,3h-76a3,3,0,0,1,-3,-3v-20a3,3,0,0,1,3,-3z" stroke-width="1"></path><g id="node_text11" fill="black"><text id="kity_text_105" text-rendering="inherit" font-size="14" dy=".8em" y="342.5" x="260.5">散列表</text></g></g><g id="minder_node32" opacity="1"><g id="node_expander31" style="cursor: pointer;"><path id="kity_path_276" fill="white" stroke="gray" d="M811.5,760.5A6,6,0,1,1,799.5,760.5A6,6,0,1,1,811.5,760.5"></path><path id="kity_path_277" fill="none" stroke="gray" d="M801,760.5L810,760.5"></path></g><path id="node_outline32" fill="rgb(238, 243, 246)" stroke="rgb(115, 161, 191)" d="M733.5,747.5h62a3,3,0,0,1,3,3v20a3,3,0,0,1,-3,3h-62a3,3,0,0,1,-3,-3v-20a3,3,0,0,1,3,-3z" stroke-width="1"></path><g id="node_text32" fill="black"><text id="kity_text_273" text-rendering="inherit" font-size="14" dy=".8em" y="753.5" x="750.5">搜索</text></g></g><g id="kity_g_12" display="none"><path id="kity_path_13" fill="none" stroke="rgb(66, 94, 112)" d="M730.5,701.5h62a3,3,0,0,1,3,3v20a3,3,0,0,1,-3,3h-62a3,3,0,0,1,-3,-3v-20a3,3,0,0,1,3,-3z" stroke-width="5"></path></g><g id="minder_node42"><g id="node_expander41" style="cursor: pointer;" display="none"><path id="kity_path_356" fill="white" stroke="gray" d="M136.5,450.5A6,6,0,1,1,124.5,450.5A6,6,0,1,1,136.5,450.5"></path><path id="kity_path_357" fill="none" stroke="gray"></path></g><path id="node_outline42" fill="none" stroke="none" d="M49.5,439.5h70a5,5,0,0,1,5,5v12a5,5,0,0,1,-5,5h-70a5,5,0,0,1,-5,-5v-12a5,5,0,0,1,5,-5z" stroke-width="3"></path><g id="node_text42" fill="black"><text id="kity_text_353" text-rendering="inherit" font-size="12" dy=".8em" y="444.5" x="54.5">平衡二叉树</text></g></g><g id="minder_node43"><g id="node_expander42" style="cursor: pointer;" display="none"><path id="kity_path_364" fill="white" stroke="gray" d="M136.5,502.5A6,6,0,1,1,124.5,502.5A6,6,0,1,1,136.5,502.5"></path><path id="kity_path_365" fill="none" stroke="gray"></path></g><path id="node_outline43" fill="none" stroke="none" d="M49.5,491.5h70a5,5,0,0,1,5,5v12a5,5,0,0,1,-5,5h-70a5,5,0,0,1,-5,-5v-12a5,5,0,0,1,5,-5z" stroke-width="3"></path><g id="node_text43" fill="black"><text id="kity_text_361" text-rendering="inherit" font-size="12" dy=".8em" y="496.5" x="54.5">二叉查找树</text></g></g><g id="minder_node44"><g id="node_expander43" style="cursor: pointer;" display="none"><path id="kity_path_372" fill="white" stroke="gray" d="M136.5,554.5A6,6,0,1,1,124.5,554.5A6,6,0,1,1,136.5,554.5"></path><path id="kity_path_373" fill="none" stroke="gray"></path></g><path id="node_outline44" fill="none" stroke="none" d="M25.5,543.5h94a5,5,0,0,1,5,5v12a5,5,0,0,1,-5,5h-94a5,5,0,0,1,-5,-5v-12a5,5,0,0,1,5,-5z" stroke-width="3"></path><g id="node_text44" fill="black"><text id="kity_text_369" text-rendering="inherit" font-size="12" dy=".8em" y="548.5" x="30.5">平衡二叉查找树</text></g></g><g id="minder_node45"><g id="node_expander44" style="cursor: pointer;" display="none"><path id="kity_path_380" fill="white" stroke="gray" d="M136.5,606.5A6,6,0,1,1,124.5,606.5A6,6,0,1,1,136.5,606.5"></path><path id="kity_path_381" fill="none" stroke="gray"></path></g><path id="node_outline45" fill="none" stroke="none" d="M49.5,595.5h70a5,5,0,0,1,5,5v12a5,5,0,0,1,-5,5h-70a5,5,0,0,1,-5,-5v-12a5,5,0,0,1,5,-5z" stroke-width="3"></path><g id="node_text45" fill="black"><text id="kity_text_377" text-rendering="inherit" font-size="12" dy=".8em" y="600.5" x="54.5">完全二叉树</text></g></g><g id="minder_node46"><g id="node_expander45" style="cursor: pointer;" display="none"><path id="kity_path_388" fill="white" stroke="gray" d="M136.5,658.5A6,6,0,1,1,124.5,658.5A6,6,0,1,1,136.5,658.5"></path><path id="kity_path_389" fill="none" stroke="gray"></path></g><path id="node_outline46" fill="none" stroke="none" d="M61.5,647.5h58a5,5,0,0,1,5,5v12a5,5,0,0,1,-5,5h-58a5,5,0,0,1,-5,-5v-12a5,5,0,0,1,5,-5z" stroke-width="3"></path><g id="node_text46" fill="black"><text id="kity_text_385" text-rendering="inherit" font-size="12" dy=".8em" y="652.5" x="66.5">满二叉树</text></g></g><g id="minder_node16"><g id="node_expander15" style="cursor: pointer;"><path id="kity_path_148" fill="white" stroke="gray" d="M232.5,554.5A6,6,0,1,1,220.5,554.5A6,6,0,1,1,232.5,554.5"></path><path id="kity_path_149" fill="none" stroke="gray" d="M222,554.5L231,554.5"></path></g><path id="node_outline16" fill="none" stroke="none" d="M169.5,543.5h46a5,5,0,0,1,5,5v12a5,5,0,0,1,-5,5h-46a5,5,0,0,1,-5,-5v-12a5,5,0,0,1,5,-5z" stroke-width="3"></path><g id="node_text16" fill="black"><text id="kity_text_145" text-rendering="inherit" font-size="12" dy=".8em" y="548.5" x="174.5">二叉树</text></g></g><g id="minder_node17"><g id="node_expander16" style="cursor: pointer;" display="none"><path id="kity_path_156" fill="white" stroke="gray" d="M232.5,710.5A6,6,0,1,1,220.5,710.5A6,6,0,1,1,232.5,710.5"></path><path id="kity_path_157" fill="none" stroke="gray"></path></g><path id="node_outline17" fill="none" stroke="none" d="M145.5,699.5h70a5,5,0,0,1,5,5v12a5,5,0,0,1,-5,5h-70a5,5,0,0,1,-5,-5v-12a5,5,0,0,1,5,-5z" stroke-width="3"></path><g id="node_text17" fill="black"><text id="kity_text_153" text-rendering="inherit" font-size="12" dy=".8em" y="704.5" x="150.5">多路查找树</text></g></g><g id="minder_node19"><g id="node_expander18" style="cursor: pointer;" display="none"><path id="kity_path_172" fill="white" stroke="gray" d="M160.5,762.5A6,6,0,1,1,148.5,762.5A6,6,0,1,1,160.5,762.5"></path><path id="kity_path_173" fill="none" stroke="gray"></path></g><path id="node_outline19" fill="none" stroke="none" d="M97.5,751.5h46a5,5,0,0,1,5,5v12a5,5,0,0,1,-5,5h-46a5,5,0,0,1,-5,-5v-12a5,5,0,0,1,5,-5z" stroke-width="3"></path><g id="node_text19" fill="black"><text id="kity_text_169" text-rendering="inherit" font-size="12" dy=".8em" y="756.5" x="102.5">大顶堆</text></g></g><g id="minder_node20"><g id="node_expander19" style="cursor: pointer;" display="none"><path id="kity_path_180" fill="white" stroke="gray" d="M160.5,814.5A6,6,0,1,1,148.5,814.5A6,6,0,1,1,160.5,814.5"></path><path id="kity_path_181" fill="none" stroke="gray"></path></g><path id="node_outline20" fill="none" stroke="none" d="M97.5,803.5h46a5,5,0,0,1,5,5v12a5,5,0,0,1,-5,5h-46a5,5,0,0,1,-5,-5v-12a5,5,0,0,1,5,-5z" stroke-width="3"></path><g id="node_text20" fill="black"><text id="kity_text_177" text-rendering="inherit" font-size="12" dy=".8em" y="808.5" x="102.5">小顶堆</text></g></g><g id="minder_node18"><g id="node_expander17" style="cursor: pointer;"><path id="kity_path_164" fill="white" stroke="gray" d="M232.5,788.5A6,6,0,1,1,220.5,788.5A6,6,0,1,1,232.5,788.5"></path><path id="kity_path_165" fill="none" stroke="gray" d="M222,788.5L231,788.5"></path></g><path id="node_outline18" fill="none" stroke="none" d="M193.5,777.5h22a5,5,0,0,1,5,5v12a5,5,0,0,1,-5,5h-22a5,5,0,0,1,-5,-5v-12a5,5,0,0,1,5,-5z" stroke-width="3"></path><g id="node_text18" fill="black"><text id="kity_text_161" text-rendering="inherit" font-size="12" dy=".8em" y="782.5" x="198.5">堆</text></g></g><g id="minder_node12"><g id="node_expander11" style="cursor: pointer;" display="none"><path id="kity_path_116" fill="white" stroke="gray" d="M216.5,31.5A6,6,0,1,1,204.5,31.5A6,6,0,1,1,216.5,31.5"></path><path id="kity_path_117" fill="none" stroke="gray"></path></g><path id="node_outline12" fill="none" stroke="none" d="M165.5,20.5h34a5,5,0,0,1,5,5v12a5,5,0,0,1,-5,5h-34a5,5,0,0,1,-5,-5v-12a5,5,0,0,1,5,-5z" stroke-width="3"></path><g id="node_text12" fill="black"><text id="kity_text_113" text-rendering="inherit" font-size="12" dy=".8em" y="25.5" x="170.5">数组</text></g></g><g id="minder_node13"><g id="node_expander12" style="cursor: pointer;" display="none"><path id="kity_path_124" fill="white" stroke="gray" d="M216.5,83.5A6,6,0,1,1,204.5,83.5A6,6,0,1,1,216.5,83.5"></path><path id="kity_path_125" fill="none" stroke="gray"></path></g><path id="node_outline13" fill="none" stroke="none" d="M165.5,72.5h34a5,5,0,0,1,5,5v12a5,5,0,0,1,-5,5h-34a5,5,0,0,1,-5,-5v-12a5,5,0,0,1,5,-5z" stroke-width="3"></path><g id="node_text13" fill="black"><text id="kity_text_121" text-rendering="inherit" font-size="12" dy=".8em" y="77.5" x="170.5">链表</text></g></g><g id="minder_node14"><g id="node_expander13" style="cursor: pointer;" display="none"><path id="kity_path_132" fill="white" stroke="gray" d="M216.5,135.5A6,6,0,1,1,204.5,135.5A6,6,0,1,1,216.5,135.5"></path><path id="kity_path_133" fill="none" stroke="gray"></path></g><path id="node_outline14" fill="none" stroke="none" d="M177.5,124.5h22a5,5,0,0,1,5,5v12a5,5,0,0,1,-5,5h-22a5,5,0,0,1,-5,-5v-12a5,5,0,0,1,5,-5z" stroke-width="3"></path><g id="node_text14" fill="black"><text id="kity_text_129" text-rendering="inherit" font-size="12" dy=".8em" y="129.5" x="182.5">栈</text></g></g><g id="minder_node15"><g id="node_expander14" style="cursor: pointer;" display="none"><path id="kity_path_140" fill="white" stroke="gray" d="M216.5,187.5A6,6,0,1,1,204.5,187.5A6,6,0,1,1,216.5,187.5"></path><path id="kity_path_141" fill="none" stroke="gray"></path></g><path id="node_outline15" fill="none" stroke="none" d="M165.5,176.5h34a5,5,0,0,1,5,5v12a5,5,0,0,1,-5,5h-34a5,5,0,0,1,-5,-5v-12a5,5,0,0,1,5,-5z" stroke-width="3"></path><g id="node_text15" fill="black"><text id="kity_text_137" text-rendering="inherit" font-size="12" dy=".8em" y="181.5" x="170.5">队列</text></g></g><g id="minder_node21"><g id="node_expander20" style="cursor: pointer;" display="none"><path id="kity_path_188" fill="white" stroke="gray" d="M857.5,68.5A6,6,0,1,1,845.5,68.5A6,6,0,1,1,857.5,68.5"></path><path id="kity_path_189" fill="none" stroke="gray"></path></g><path id="node_outline21" fill="none" stroke="none" d="M862.5,57.5h70a5,5,0,0,1,5,5v12a5,5,0,0,1,-5,5h-70a5,5,0,0,1,-5,-5v-12a5,5,0,0,1,5,-5z" stroke-width="3"></path><g id="node_text21" fill="black"><text id="kity_text_185" text-rendering="inherit" font-size="12" dy=".8em" y="62.5" x="867.5">空间复杂度</text></g></g><g id="minder_node22"><g id="node_expander21" style="cursor: pointer;" display="none"><path id="kity_path_196" fill="white" stroke="gray" d="M857.5,120.5A6,6,0,1,1,845.5,120.5A6,6,0,1,1,857.5,120.5"></path><path id="kity_path_197" fill="none" stroke="gray"></path></g><path id="node_outline22" fill="none" stroke="none" d="M862.5,109.5h70a5,5,0,0,1,5,5v12a5,5,0,0,1,-5,5h-70a5,5,0,0,1,-5,-5v-12a5,5,0,0,1,5,-5z" stroke-width="3"></path><g id="node_text22" fill="black"><text id="kity_text_193" text-rendering="inherit" font-size="12" dy=".8em" y="114.5" x="867.5">时间复杂度</text></g></g><g id="minder_node23"><g id="node_expander22" style="cursor: pointer;" display="none"><path id="kity_path_204" fill="white" stroke="gray" d="M852.5,232.5A6,6,0,1,1,840.5,232.5A6,6,0,1,1,852.5,232.5"></path><path id="kity_path_205" fill="none" stroke="gray"></path></g><path id="node_outline23" fill="none" stroke="none" d="M857.5,221.5h298a5,5,0,0,1,5,5v12a5,5,0,0,1,-5,5h-298a5,5,0,0,1,-5,-5v-12a5,5,0,0,1,5,-5z" stroke-width="3"></path><g id="node_text23" fill="black"><text id="kity_text_201" text-rendering="inherit" font-size="12" dy=".8em" y="226.5" x="862.5">贪心算法、分治算法、动态规划、回溯算法、枚举算法</text></g></g><g id="minder_node33"><g id="node_expander32" style="cursor: pointer;" display="none"><path id="kity_path_284" fill="white" stroke="gray" d="M838.5,734.5A6,6,0,1,1,826.5,734.5A6,6,0,1,1,838.5,734.5"></path><path id="kity_path_285" fill="none" stroke="gray"></path></g><path id="node_outline33" fill="none" stroke="none" d="M843.5,723.5h58a5,5,0,0,1,5,5v12a5,5,0,0,1,-5,5h-58a5,5,0,0,1,-5,-5v-12a5,5,0,0,1,5,-5z" stroke-width="3"></path><g id="node_text33" fill="black"><text id="kity_text_281" text-rendering="inherit" font-size="12" dy=".8em" y="728.5" x="848.5">深度优先</text></g></g><g id="minder_node34"><g id="node_expander33" style="cursor: pointer;" display="none"><path id="kity_path_292" fill="white" stroke="gray" d="M838.5,786.5A6,6,0,1,1,826.5,786.5A6,6,0,1,1,838.5,786.5"></path><path id="kity_path_293" fill="none" stroke="gray"></path></g><path id="node_outline34" fill="none" stroke="none" d="M843.5,775.5h58a5,5,0,0,1,5,5v12a5,5,0,0,1,-5,5h-58a5,5,0,0,1,-5,-5v-12a5,5,0,0,1,5,-5z" stroke-width="3"></path><g id="node_text34" fill="black"><text id="kity_text_289" text-rendering="inherit" font-size="12" dy=".8em" y="780.5" x="848.5">广度优先</text></g></g><g id="minder_node28"><g id="node_expander27" style="cursor: pointer;" display="none"><path id="kity_path_244" fill="white" stroke="gray" d="M834.5,538.5A6,6,0,1,1,822.5,538.5A6,6,0,1,1,834.5,538.5"></path><path id="kity_path_245" fill="none" stroke="gray"></path></g><path id="node_outline28" fill="none" stroke="none" d="M839.5,527.5h70a5,5,0,0,1,5,5v12a5,5,0,0,1,-5,5h-70a5,5,0,0,1,-5,-5v-12a5,5,0,0,1,5,-5z" stroke-width="3"></path><g id="node_text28" fill="black"><text id="kity_text_241" text-rendering="inherit" font-size="12" dy=".8em" y="532.5" x="844.5">线性表查找</text></g></g><g id="minder_node29"><g id="node_expander28" style="cursor: pointer;" display="none"><path id="kity_path_252" fill="white" stroke="gray" d="M834.5,590.5A6,6,0,1,1,822.5,590.5A6,6,0,1,1,834.5,590.5"></path><path id="kity_path_253" fill="none" stroke="gray"></path></g><path id="node_outline29" fill="none" stroke="none" d="M839.5,579.5h70a5,5,0,0,1,5,5v12a5,5,0,0,1,-5,5h-70a5,5,0,0,1,-5,-5v-12a5,5,0,0,1,5,-5z" stroke-width="3"></path><g id="node_text29" fill="black"><text id="kity_text_249" text-rendering="inherit" font-size="12" dy=".8em" y="584.5" x="844.5">树结构查找</text></g></g><g id="minder_node30"><g id="node_expander29" style="cursor: pointer;" display="none"><path id="kity_path_260" fill="white" stroke="gray" d="M834.5,642.5A6,6,0,1,1,822.5,642.5A6,6,0,1,1,834.5,642.5"></path><path id="kity_path_261" fill="none" stroke="gray"></path></g><path id="node_outline30" fill="none" stroke="none" d="M839.5,631.5h70a5,5,0,0,1,5,5v12a5,5,0,0,1,-5,5h-70a5,5,0,0,1,-5,-5v-12a5,5,0,0,1,5,-5z" stroke-width="3"></path><g id="node_text30" fill="black"><text id="kity_text_257" text-rendering="inherit" font-size="12" dy=".8em" y="636.5" x="844.5">散列表查找</text></g></g><g id="minder_node38"><g id="node_expander37" style="cursor: pointer;" display="none"><path id="kity_path_324" fill="white" stroke="gray" d="M931.5,345.5A6,6,0,1,1,919.5,345.5A6,6,0,1,1,931.5,345.5"></path><path id="kity_path_325" fill="none" stroke="gray"></path></g><path id="node_outline38" fill="none" stroke="none" d="M936.5,334.5h142a5,5,0,0,1,5,5v12a5,5,0,0,1,-5,5h-142a5,5,0,0,1,-5,-5v-12a5,5,0,0,1,5,-5z" stroke-width="3"></path><g id="node_text38" fill="black"><text id="kity_text_321" text-rendering="inherit" font-size="12" dy=".8em" y="339.5" x="941.5">冒泡、插入、选择、希尔</text></g></g><g id="minder_node35"><g id="node_expander34" style="cursor: pointer;"><path id="kity_path_300" fill="white" stroke="gray" d="M830.5,345.5A6,6,0,1,1,818.5,345.5A6,6,0,1,1,830.5,345.5"></path><path id="kity_path_301" fill="none" stroke="gray" d="M820,345.5L829,345.5"></path></g><path id="node_outline35" fill="none" stroke="none" d="M835.5,334.5h51a5,5,0,0,1,5,5v12a5,5,0,0,1,-5,5h-51a5,5,0,0,1,-5,-5v-12a5,5,0,0,1,5,-5z" stroke-width="3"></path><g id="node_text35" fill="black"><text id="kity_text_297" text-rendering="inherit" font-size="12" dy=".8em" y="339.5" x="840.5">O(n^2)</text></g></g><g id="minder_node40"><g id="node_expander39" style="cursor: pointer;" display="none"><path id="kity_path_340" fill="white" stroke="gray" d="M942.5,397.5A6,6,0,1,1,930.5,397.5A6,6,0,1,1,942.5,397.5"></path><path id="kity_path_341" fill="none" stroke="gray"></path></g><path id="node_outline40" fill="none" stroke="none" d="M947.5,386.5h94a5,5,0,0,1,5,5v12a5,5,0,0,1,-5,5h-94a5,5,0,0,1,-5,-5v-12a5,5,0,0,1,5,-5z" stroke-width="3"></path><g id="node_text40" fill="black"><text id="kity_text_337" text-rendering="inherit" font-size="12" dy=".8em" y="391.5" x="952.5">归并、快速、堆</text></g></g><g id="minder_node36"><g id="node_expander35" style="cursor: pointer;"><path id="kity_path_308" fill="white" stroke="gray" d="M830.5,397.5A6,6,0,1,1,818.5,397.5A6,6,0,1,1,830.5,397.5"></path><path id="kity_path_309" fill="none" stroke="gray" d="M820,397.5L829,397.5"></path></g><path id="node_outline36" fill="none" stroke="none" d="M835.5,386.5h62a5,5,0,0,1,5,5v12a5,5,0,0,1,-5,5h-62a5,5,0,0,1,-5,-5v-12a5,5,0,0,1,5,-5z" stroke-width="3"></path><g id="node_text36" fill="black"><text id="kity_text_305" text-rendering="inherit" font-size="12" dy=".8em" y="391.5" x="840.5">O(nlogn)</text></g></g><g id="minder_node41"><g id="node_expander40" style="cursor: pointer;" display="none"><path id="kity_path_348" fill="white" stroke="gray" d="M917.5,449.5A6,6,0,1,1,905.5,449.5A6,6,0,1,1,917.5,449.5"></path><path id="kity_path_349" fill="none" stroke="gray"></path></g><path id="node_outline41" fill="none" stroke="none" d="M922.5,438.5h94a5,5,0,0,1,5,5v12a5,5,0,0,1,-5,5h-94a5,5,0,0,1,-5,-5v-12a5,5,0,0,1,5,-5z" stroke-width="3"></path><g id="node_text41" fill="black"><text id="kity_text_345" text-rendering="inherit" font-size="12" dy=".8em" y="443.5" x="927.5">计数、基数、桶</text></g></g><g id="minder_node37"><g id="node_expander36" style="cursor: pointer;"><path id="kity_path_316" fill="white" stroke="gray" d="M830.5,449.5A6,6,0,1,1,818.5,449.5A6,6,0,1,1,830.5,449.5"></path><path id="kity_path_317" fill="none" stroke="gray" d="M820,449.5L829,449.5"></path></g><path id="node_outline37" fill="none" stroke="none" d="M835.5,438.5h37a5,5,0,0,1,5,5v12a5,5,0,0,1,-5,5h-37a5,5,0,0,1,-5,-5v-12a5,5,0,0,1,5,-5z" stroke-width="3"></path><g id="node_text37" fill="black"><text id="kity_text_313" text-rendering="inherit" font-size="12" dy=".8em" y="443.5" x="840.5">O(n)</text></g></g></g></g></svg>